HIERARCHY
ROOT Hips
{
	OFFSET 0.00000 0.00000 0.00000
	CHANNELS 6 Xposition Yposition Zposition Zrotation Yrotation Xrotation 
	JOINT LHipJoint
	{
		OFFSET 0 0 0
		CHANNELS 3 Zrotation Yrotation Xrotation
		JOINT LeftUpLeg
		{
			OFFSET 1.46561 -1.72757 0.83774
			CHANNELS 3 Zrotation Yrotation Xrotation
			JOINT LeftLeg
			{
				OFFSET 2.48915 -6.83890 0.00000
				CHANNELS 3 Zrotation Yrotation Xrotation
				JOINT LeftFoot
				{
					OFFSET 2.60555 -7.15868 0.00000
					CHANNELS 3 Zrotation Yrotation Xrotation
					JOINT LeftToeBase
					{
						OFFSET 0.19248 -0.52884 2.26738
						CHANNELS 3 Zrotation Yrotation Xrotation
						End Site
						{
							OFFSET 0.00000 -0.00000 1.17015
						}
					}
				}
			}
		}
	}
	JOINT RHipJoint
	{
		OFFSET 0 0 0
		CHANNELS 3 Zrotation Yrotation Xrotation
		JOINT RightUpLeg
		{
			OFFSET -1.46918 -1.72757 0.83774
			CHANNELS 3 Zrotation Yrotation Xrotation
			JOINT RightLeg
			{
				OFFSET -2.49034 -6.84216 0.00000
				CHANNELS 3 Zrotation Yrotation Xrotation
				JOINT RightFoot
				{
					OFFSET -2.65971 -7.30750 0.00000
					CHANNELS 3 Zrotation Yrotation Xrotation
					JOINT RightToeBase
					{
						OFFSET -0.19227 -0.52827 2.30785
						CHANNELS 3 Zrotation Yrotation Xrotation
						End Site
						{
							OFFSET -0.00000 -0.00000 1.18972
						}
					}
				}
			}
		}
	}
	JOINT LowerBack
	{
		OFFSET 0 0 0
		CHANNELS 3 Zrotation Yrotation Xrotation
		JOINT Spine
		{
			OFFSET 0.02432 2.19909 -0.28000
			CHANNELS 3 Zrotation Yrotation Xrotation
			JOINT Spine1
			{
				OFFSET 0.03714 2.21816 -0.15261
				CHANNELS 3 Zrotation Yrotation Xrotation
				JOINT Neck
				{
					OFFSET 0 0 0
					CHANNELS 3 Zrotation Yrotation Xrotation
					JOINT Neck1
					{
						OFFSET -0.01896 1.56165 0.21681
						CHANNELS 3 Zrotation Yrotation Xrotation
						JOINT Head
						{
							OFFSET 0.02744 1.56009 0.06764
							CHANNELS 3 Zrotation Yrotation Xrotation
							End Site
							{
								OFFSET 0.01212 1.60574 0.00298
							}
						}
					}
				}
				JOINT LeftShoulder
				{
					OFFSET 0 0 0
					CHANNELS 3 Zrotation Yrotation Xrotation
					JOINT LeftArm
					{
						OFFSET 3.05595 1.48048 -0.60794
						CHANNELS 3 Zrotation Yrotation Xrotation
						JOINT LeftForeArm
						{
							OFFSET 5.20607 -0.00000 -0.00000
							CHANNELS 3 Zrotation Yrotation Xrotation
							JOINT LeftHand
							{
								OFFSET 3.39961 -0.00000 0.00000
								CHANNELS 3 Zrotation Yrotation Xrotation
								JOINT LeftFingerBase
								{
									OFFSET 0 0 0
									CHANNELS 3 Zrotation Yrotation Xrotation
									JOINT LeftHandIndex1
									{
										OFFSET 0.51969 -0.00000 0.00000
										CHANNELS 3 Zrotation Yrotation Xrotation
										End Site
										{
											OFFSET 0.41899 -0.00000 0.00000
										}
									}
								}
								JOINT LThumb
								{
									OFFSET 0 0 0
									CHANNELS 3 Zrotation Yrotation Xrotation
									End Site
									{
										OFFSET 0.42539 -0.00000 0.42539
									}
								}
							}
						}
					}
				}
				JOINT RightShoulder
				{
					OFFSET 0 0 0
					CHANNELS 3 Zrotation Yrotation Xrotation
					JOINT RightArm
					{
						OFFSET -2.99052 1.57608 -0.69102
						CHANNELS 3 Zrotation Yrotation Xrotation
						JOINT RightForeArm
						{
							OFFSET -5.32214 -0.00000 0.00000
							CHANNELS 3 Zrotation Yrotation Xrotation
							JOINT RightHand
							{
								OFFSET -3.51208 -0.00000 0.00000
								CHANNELS 3 Zrotation Yrotation Xrotation
								JOINT RightFingerBase
								{
									OFFSET 0 0 0
									CHANNELS 3 Zrotation Yrotation Xrotation
									JOINT RightHandIndex1
									{
										OFFSET -0.58668 -0.00000 0.00000
										CHANNELS 3 Zrotation Yrotation Xrotation
										End Site
										{
											OFFSET -0.47300 -0.00000 0.00000
										}
									}
								}
								JOINT RThumb
								{
									OFFSET 0 0 0
									CHANNELS 3 Zrotation Yrotation Xrotation
									End Site
									{
										OFFSET -0.48022 -0.00000 0.48022
									}
								}
							}
						}
					}
				}
			}
		}
	}
}
MOTION
Frames: 7
Frame Time: .0083333
0.5541 17.5309 -14.1856 0 0 0 0 0 0 -21 0 0 0 0 0 0 0 0 0 0 0 0 0 0 21 0 0 0 0 0 0 0 0 0 0 0 0 0 0 0 0 0 0 0 0 0 0 -16 0 0 21 0 0 11 0 0 0 -8 0 0 0 0 0 0 0 0 0 0 0 0 0 0 0 0 0 0 0 0 8 0 0 0 0 0 0 0 0 0 0 0 0 0 0 0 0 0
0.5541 17.5309 -14.1856 -1.3184 -1.3405 6.3672 0.0000 0.0000 0.0000 -18.1362 2.7994 -17.0776 1.4046 7.4968 21.1958 0.4205 0.4940 -12.4386 0.0705 1.7128 4.7127 0.0000 0.0000 0.0000 18.3358 3.1706 -16.0608 -1.7251 -8.2683 23.5321 -0.5795 0.5873 -14.1916 -0.2485 -3.2078 8.8578 -0.2256 -0.8112 -0.1487 1.7088 -1.1531 4.8406 1.8416 -0.6256 5.1227 -1.8502 1.0247 -13.2357 0.1886 1.9173 32.5195 0.6788 0.6285 13.0554 0.0000 0.0000 0.0000 -86.5564 -13.6583 32.1607 10.6604 -17.7659 -1.6708 -0.0000 0.0000 -1.3755 24.4628 -2.7137 -1.2339 -7.1250 0.0000 -0.0000 -1.6336 26.9981 0.7142 0.0000 0.0000 0.0000 86.4632 12.0592 15.0280 -13.6878 22.2866 -2.7086 0.0000 0.0000 31.9334 -19.2292 -24.6524 8.2780 7.1250 -0.0000 -0.0000 11.0685 -55.5595 -2.8942
0.5536 17.5303 -14.1865 -1.3374 -1.3346 6.3740 0.0000 0.0000 0.0000 -18.1111 2.8073 -17.1195 1.4106 7.5119 21.2411 0.4222 0.4637 -12.4513 0.0725 1.7376 4.7811 0.0000 0.0000 0.0000 18.3594 3.1880 -16.0753 -1.7274 -8.2735 23.5481 -0.5798 0.5688 -14.2020 -0.2465 -3.1951 8.8225 -0.2127 -0.8087 -0.1390 1.7136 -1.1504 4.8452 1.8395 -0.6238 5.1218 -1.8111 1.0115 -13.2569 0.1497 1.9008 32.5274 0.6547 0.6208 13.0646 -0.0000 -0.0000 0.0000 -86.5533 -13.6905 32.1852 10.6480 -17.7467 -1.6670 -0.0000 0.0000 -1.3937 24.4887 -2.7649 -1.2587 -7.1250 0.0000 -0.0000 -1.6138 26.9412 0.7078 -0.0000 -0.0000 0.0000 86.4729 12.0569 15.0869 -13.7208 22.3341 -2.7211 0.0000 0.0000 31.8427 -19.1962 -24.8260 8.3166 7.1250 -0.0000 -0.0000 11.1834 -55.7274 -2.9706
0.5534 17.5295 -14.1867 -1.3378 -1.3216 6.3741 0.0000 0.0000 0.0000 -18.1095 2.7885 -17.1335 1.4149 7.5230 21.2744 0.4236 0.4645 -12.4720 0.0699 1.7058 4.6934 0.0000 0.0000 0.0000 18.3602 3.1944 -16.0827 -1.7305 -8.2806 23.5696 -0.5799 0.5443 -14.2100 -0.2439 -3.1783 8.7755 -0.2116 -0.8101 -0.1249 1.7128 -1.1522 4.8444 1.8382 -0.6246 5.1129 -1.8249 1.0125 -13.2397 0.1730 1.8978 32.5191 0.6655 0.6210 13.0569 -0.0000 0.0000 0.0000 -86.5519 -13.6859 32.2049 10.6616 -17.7678 -1.6712 -0.0000 0.0000 -1.4222 24.3646 -2.6509 -1.1999 -7.1250 0.0000 -0.0000 -1.7088 27.0691 0.7443 -0.0000 0.0000 0.0000 86.4838 12.0811 15.0854 -13.7197 22.3325 -2.7207 0.0000 0.0000 31.7926 -19.1462 -24.9747 8.3395 7.1250 -0.0000 -0.0000 11.3053 -55.8669 -3.0420
0.5533 17.5291 -14.1873 -1.3394 -1.3320 6.3858 0.0000 0.0000 0.0000 -18.1077 2.7858 -17.1665 1.4196 7.5348 21.3099 0.4240 0.4667 -12.4790 0.0706 1.7142 4.7166 0.0000 0.0000 0.0000 18.3601 3.1977 -16.1131 -1.7336 -8.2875 23.5909 -0.5803 0.5616 -14.2103 -0.2421 -3.1665 8.7427 -0.2198 -0.8121 -0.1229 1.7184 -1.1549 4.8500 1.8485 -0.6265 5.1180 -1.8191 1.0090 -13.2525 0.1532 1.8978 32.5196 0.6569 0.6190 13.0603 -0.0000 -0.0000 0.0000 -86.5651 -13.7035 32.1846 10.6669 -17.7758 -1.6728 -0.0000 0.0000 -1.4198 24.4399 -2.6857 -1.2199 -7.1250 0.0000 -0.0000 -1.6511 27.0293 0.7207 -0.0000 -0.0000 0.0000 86.4740 12.0877 15.1460 -13.7377 22.3585 -2.7275 0.0000 0.0000 31.7587 -19.1576 -24.9018 8.3222 7.1250 -0.0000 -0.0000 11.2590 -55.7958 -3.0098
0.5532 17.5285 -14.1877 -1.3434 -1.3335 6.3902 0.0000 0.0000 0.0000 -18.1023 2.7824 -17.1891 1.4235 7.5448 21.3396 0.4247 0.4654 -12.4880 0.0704 1.7114 4.7087 0.0000 0.0000 0.0000 18.3641 3.2049 -16.1325 -1.7371 -8.2955 23.6151 -0.5807 0.5596 -14.2151 -0.2396 -3.1500 8.6965 -0.2214 -0.8118 -0.1120 1.7214 -1.1545 4.8544 1.8526 -0.6265 5.1165 -1.8141 1.0060 -13.2606 0.1482 1.8939 32.5205 0.6536 0.6172 13.0626 0.0000 0.0000 0.0000 -86.5717 -13.7212 32.1833 10.6676 -17.7770 -1.6730 -0.0000 0.0000 -1.4242 24.4454 -2.6859 -1.2203 -7.1250 0.0000 -0.0000 -1.6469 27.0289 0.7189 0.0000 0.0000 0.0000 86.4741 12.0984 15.1805 -13.7525 22.3797 -2.7332 0.0000 0.0000 31.7154 -19.1453 -24.9315 8.3257 7.1250 -0.0000 -0.0000 11.2859 -55.8233 -3.0247
0.5531 17.5278 -14.1882 -1.3473 -1.3360 6.3932 0.0000 0.0000 0.0000 -18.0966 2.7773 -17.2107 1.4277 7.5555 21.3718 0.4254 0.4668 -12.4982 0.0700 1.7067 4.6958 0.0000 0.0000 0.0000 18.3678 3.2128 -16.1509 -1.7407 -8.3036 23.6402 -0.5809 0.5582 -14.2182 -0.2373 -3.1350 8.6548 -0.2230 -0.8108 -0.0996 1.7239 -1.1533 4.8600 1.8564 -0.6261 5.1154 -1.8095 1.0048 -13.2717 0.1472 1.8915 32.5229 0.6522 0.6165 13.0661 0.0000 0.0000 0.0000 -86.5784 -13.7396 32.1810 10.6693 -17.7797 -1.6736 -0.0000 0.0000 -1.4274 24.4543 -2.6886 -1.2220 -7.1250 0.0000 -0.0000 -1.6401 27.0257 0.7160 0.0000 0.0000 0.0000 86.4742 12.1090 15.2136 -13.7683 22.4024 -2.7392 0.0000 0.0000 31.6761 -19.1393 -24.9478 8.3280 7.1250 -0.0000 -0.0000 11.2998 -55.8384 -3.0326
